<?xml version="1.0" encoding="UTF-8"?>
<svg id="Layer_2" data-name="Layer 2" xmlns="http://www.w3.org/2000/svg" viewBox="0 0 219.42 219.35">
  <defs>
    <style>
      .cls-1 {
        fill: #fff;
      }

      .cls-2 {
        fill: #232c33;
      }
    </style>
  </defs>
  <g id="Layer_2-2" data-name="Layer 2">
    <g>
      <path class="cls-1" d="M137.15,208.4v-31.34c0-8.06-3.24-16.5-7.84-19.31,19.99-2.98,47.69-7.15,50.31-48.04,1.48-23.06-8.36-31.34-11.3-35.31,3.71-7.03,3.96-18.29-.9-29.55-6.48-1.02-15.86,1.71-30.36,11.26-14.84-4.01-37.01-5.8-54.66.26-6.78-4.58-21.87-13.02-30.44-11.71-2.62,8.09-5.56,17.87-1.09,29.13-5.76,7.61-11.7,15.33-11.36,30.68.34,15.35,3.37,49.33,49.8,53.17-1.98,2.43-6.27,7.42-6.52,14.77-4.67,2.56-21.3,7.15-30.31-6.33-4.73-7.08-6.44-11.6-18.46-14.03-3.26-.66-8.79.81-1.45,6.1,9.76,7.03,10.88,13.73,13.6,18.63,1.48,2.67,6.99,15.43,36.15,11.26-.09,3.5,0,20.38,0,20.38.23,5.17-2.48,6.58-7.25,5.37,10.89,3.62,22.53,5.59,34.64,5.59s23.34-1.9,34.06-5.4c-4.29.93-6.53-1.42-6.61-5.56Z"/>
      <path class="cls-2" d="M215.94,137.14s.02-.06.02-.09c.2-.77.39-1.55.57-2.33.09-.37.17-.74.25-1.11.25-1.14.49-2.29.71-3.45.1-.54.2-1.08.3-1.63.11-.63.22-1.26.31-1.89.16-1.02.31-2.04.44-3.07.06-.5.12-1,.17-1.5.09-.83.18-1.65.25-2.48.04-.43.08-.87.12-1.3.09-1.19.16-2.38.22-3.57.02-.37.03-.74.04-1.11.04-1.25.07-2.51.08-3.78,0-.04,0-.07,0-.11,0-.01,0-.02,0-.03-.02-60.58-49.13-109.68-109.71-109.68S.02,49.1,0,109.68c0,.01,0,.02,0,.03,0,.04,0,.08,0,.11,0,1.24.03,2.47.07,3.7.01.38.03.76.04,1.14.05,1.18.12,2.36.21,3.53.03.42.08.85.11,1.27.07.81.15,1.62.24,2.42.06.53.11,1.05.18,1.57.13,1.01.27,2.02.42,3.03.1.64.21,1.28.32,1.91.09.51.18,1.01.27,1.52.24,1.28.5,2.54.78,3.8.06.27.12.54.18.81.18.79.38,1.58.58,2.37.05.18.1.36.14.55,9.15,35.11,35.23,63.38,69.02,75.53.89.33,1.72.6,2.5.79,4.77,1.21,7.49-.2,7.25-5.37,0,0-.09-16.88,0-20.38-29.16,4.18-34.67-8.59-36.15-11.26-2.72-4.9-3.84-11.6-13.6-18.63-7.34-5.29-1.81-6.76,1.45-6.1,12.02,2.43,13.73,6.95,18.46,14.03,9.01,13.48,25.64,8.89,30.31,6.33.26-7.35,4.54-12.34,6.52-14.77-46.43-3.84-49.46-37.82-49.8-53.17-.34-15.35,5.61-23.07,11.36-30.68-4.48-11.26-1.53-21.04,1.09-29.13,8.57-1.31,23.66,7.13,30.44,11.71,17.65-6.05,39.82-4.26,54.66-.26,14.5-9.55,23.88-12.28,30.36-11.26,4.86,11.26,4.6,22.51.9,29.55,2.94,3.98,12.77,12.26,11.3,35.31-2.62,40.89-30.31,45.05-50.31,48.04,4.6,2.81,7.84,11.26,7.84,19.31v31.34c.08,4.14,2.32,6.49,6.61,5.56.35-.08.7-.16,1.07-.28,33.14-11.19,59.16-37.79,69.6-71.27.03-.1.06-.2.09-.3.51-1.64.98-3.3,1.41-4.97Z"/>
    </g>
  </g>
</svg>